<?xml version="1.0" encoding="utf-8"?>
<!-- Generator: Adobe Illustrator 23.0.1, SVG Export Plug-In . SVG Version: 6.00 Build 0)  -->
<svg version="1.1" id="Ebene_1" xmlns="http://www.w3.org/2000/svg" xmlns:xlink="http://www.w3.org/1999/xlink" x="0px" y="0px"
	 width="512px" height="512px" viewBox="0 0 512 512" style="enable-background:new 0 0 512 512;" xml:space="preserve">
<style type="text/css">
	.st0{fill:#FFFFFF;}
</style>
<path class="st0" d="M442.6,113.8h-17c-0.5-6.8-1.6-13.5-3.4-20c-1.1-4-5.2-6.4-9.2-5.3c-4,1.1-6.4,5.2-5.3,9.2
	c2.1,7.5,3.1,15.4,3.1,23.5c0,18-5.2,35.1-14.7,48c-9.9,13.5-23.8,21.3-38.3,21.3c-4.6,0-8.4-3.8-8.4-8.4c0-4.6,3.8-8.4,8.4-8.4
	c19.9,0,36.1-23.6,36.1-52.5c0-28.9-16.2-52.5-36.1-52.5c-18.2,0-33.3,19.6-35.8,45h-16.8c1.2-15.2,6.2-29.4,14.4-40.5
	c9.9-13.5,23.8-21.3,38.3-21.3c14.4,0,28.4,7.8,38.3,21.3c2.4,3.3,7.1,4.1,10.5,1.6s4.1-7.1,1.6-10.5C395.5,47,377.2,37,357.9,37
	c-19.3,0-37.6,10-50.4,27.4c-10,13.6-16,30.9-17.3,49.4h-19.6c-1.3-18.4-7.3-35.7-17.3-49.4C240.6,47,222.3,37,203,37
	c-19.3,0-37.6,10-50.4,27.4c-10,13.6-16,30.9-17.3,49.4H70.8C31.8,113.8,0,145.6,0,184.6V404c0,39.1,31.8,70.8,70.8,70.8h371.8
	c38.3,0,69.4-31.1,69.4-69.4V183.2C512,144.9,480.9,113.8,442.6,113.8z M357.9,83.8c10.4,0,18.5,14.6,20.6,30h-41.3
	C339.4,96.2,349.1,83.8,357.9,83.8z M164.7,73.3C174.6,59.8,188.6,52,203,52c14.4,0,28.4,7.8,38.3,21.3c9.5,12.9,14.7,30,14.7,48
	c0,18-5.2,35.1-14.7,48c-9.9,13.5-23.8,21.3-38.3,21.3c-4.6,0-8.4-3.8-8.4-8.4c0-4.6,3.8-8.4,8.4-8.4c19.9,0,36.1-23.6,36.1-52.5
	c0-28.9-16.2-52.5-36.1-52.5c-18.2,0-33.3,19.6-35.8,45h-16.8C151.6,98.6,156.6,84.4,164.7,73.3z M223.6,113.8h-41.3
	c2.2-17.6,11.9-30,20.7-30C213.4,83.8,221.5,98.4,223.6,113.8z M223.7,128.8c-2.2,17.6-11.9,30-20.7,30c-12.9,0-23.4,10.5-23.4,23.4
	c0,12.9,10.5,23.4,23.4,23.4c19.3,0,37.6-10,50.4-27.4c10-13.6,16-30.9,17.3-49.4h107.9c-2.2,17.6-11.9,30-20.7,30
	c-12.9,0-23.4,10.5-23.4,23.4s10.5,23.4,23.4,23.4c19.3,0,37.6-10,50.4-27.4c10-13.6,16-30.9,17.3-49.4h17c30,0,54.4,24.4,54.4,54.4
	V208H78.3v-24.8c0-30,24.4-54.4,54.4-54.4H223.7z M70.8,128.8h18.8c-16.1,12.7-26.4,32.4-26.4,54.4V208H15v-23.4
	C15,153.8,40,128.8,70.8,128.8z M442.6,459.8H132.7c-30,0-54.4-24.4-54.4-54.4v-18.3c0-4.1-3.4-7.5-7.5-7.5c-4.1,0-7.5,3.4-7.5,7.5
	v18.3c0,22,10.3,41.7,26.4,54.4H70.8C40,459.8,15,434.8,15,404V223h48.3v132.6c0,4.1,3.4,7.5,7.5,7.5c4.1,0,7.5-3.4,7.5-7.5V223H497
	v182.4C497,435.4,472.6,459.8,442.6,459.8z"/>
<path class="st0" d="M287.6,245c-53.2,0-96.4,43.3-96.4,96.4s43.2,96.4,96.4,96.4c53.2,0,96.4-43.2,96.4-96.4S340.8,245,287.6,245z
	 M355.3,296.1c8.5,12.6,13.5,27.7,13.7,44L358,327.8c-3.5-3.9-5.2-9.2-4.7-14.4L355.3,296.1z M311.8,263.6l-16.6,7.5
	c-4.8,2.2-10.3,2.2-15.1,0l-16.7-7.5c7.7-2.4,15.9-3.7,24.3-3.7C296.1,260,304.2,261.3,311.8,263.6z M222,313.2
	c0.6,5.3-1.2,10.6-4.8,14.5l-10.9,11.7c0.4-16.1,5.4-31.1,13.9-43.6L222,313.2z M224.8,393l14.6,3c5.2,1.1,9.7,4.4,12.3,9l6.9,12.4
	C245.3,412.3,233.7,403.9,224.8,393z M278.5,422.3l-13.7-24.6c-4.7-8.4-12.9-14.4-22.4-16.4l-28.6-5.8c-2.4-5.1-4.2-10.5-5.5-16.2
	l20-21.4c6.6-7.1,9.7-16.7,8.7-26.3l-3.3-31c3.6-3.2,7.4-6.1,11.6-8.6l28.8,12.9c4.3,1.9,14.6,5.8,27.5-0.1l28.6-13
	c4.3,2.6,8.3,5.6,12,8.9l-3.6,30.9c-1,9.5,2,19,8.4,26.1l20,22.3c-1.2,5.3-3,10.3-5.2,15.1l-28.6,6c-9.6,2-17.8,8.1-22.5,16.7
	l-13.1,24.2C287.6,423.6,281.5,422.6,278.5,422.3z M317.1,417.3l6.6-12.1c2.6-4.8,7.1-8.1,12.5-9.2l14.5-3.1
	C341.8,403.7,330.3,412.1,317.1,417.3z"/>
<path class="st0" d="M313.4,361.7l6.3-19.3c2.2-6.8-0.2-14.2-6-18.4l-16.4-11.9c-5.8-4.2-13.5-4.2-19.3,0l-16.4,11.9
	c-5.8,4.2-8.2,11.6-6,18.4l6.3,19.3c2.2,6.8,8.5,11.3,15.6,11.3h20.3C304.9,373.1,311.2,368.5,313.4,361.7z M276.1,357.1l-6.3-19.3
	c-0.2-0.6,0-1.2,0.5-1.6l16.4-11.9c0.2-0.2,1-0.5,1.7,0l16.4,11.9c0.5,0.4,0.7,1,0.5,1.6l-6.3,19.3c-0.2,0.6-0.7,1-1.4,1h-20.3
	C276.9,358.1,276.3,357.7,276.1,357.1z"/>
</svg>
