<svg height="512pt" viewBox="0 -37 512 512" width="512pt" xmlns="http://www.w3.org/2000/svg"><path d="m442.59375 76.78125h-17.042969c-.472656-6.816406-1.589843-13.503906-3.351562-19.957031-1.089844-3.996094-5.21875-6.351563-9.210938-5.261719-3.996093 1.089844-6.351562 5.210938-5.261719 9.207031 2.050782 7.527344 3.09375 15.433594 3.09375 23.511719 0 18.03125-5.207031 35.078125-14.660156 48.007812-9.886718 13.519532-23.832031 21.273438-38.257812 21.273438-4.628906 0-8.390625-3.765625-8.390625-8.390625 0-4.628906 3.761719-8.394531 8.390625-8.394531 19.921875 0 36.132812-23.550782 36.132812-52.496094 0-28.949219-16.210937-52.5-36.132812-52.5-18.171875 0-33.253906 19.589844-35.765625 45h-16.847657c1.234376-15.222656 6.226563-29.390625 14.355469-40.507812 9.882813-13.519532 23.828125-21.273438 38.257813-21.273438 14.425781 0 28.371094 7.753906 38.257812 21.273438 2.445313 3.34375 7.136719 4.070312 10.480469 1.625 3.34375-2.445313 4.070313-7.136719 1.625-10.480469-12.742187-17.425781-31.097656-27.417969-50.363281-27.417969-19.269532 0-37.625 9.992188-50.367188 27.417969-9.972656 13.640625-15.992187 30.941406-17.28125 49.363281h-19.621094c-1.289062-18.421875-7.308593-35.722656-17.28125-49.363281-12.742187-17.425781-31.097656-27.417969-50.367187-27.417969-19.265625 0-37.621094 9.992188-50.363281 27.417969-9.972656 13.640625-15.992188 30.945312-17.28125 49.363281h-64.507813c-39.058593 0-70.832031 31.773438-70.832031 70.828125v219.375c0 39.054687 31.773438 70.832031 70.832031 70.832031h371.761719c38.269531 0 69.40625-31.136718 69.40625-69.410156v-222.21875c0-38.273438-31.136719-69.40625-69.40625-69.40625zm-84.691406-30c10.402344 0 18.535156 14.640625 20.613281 30h-41.28125c2.207031-17.59375 11.894531-30 20.667969-30zm-193.171875-10.507812c9.886719-13.519532 23.828125-21.273438 38.257812-21.273438 14.425781 0 28.371094 7.753906 38.257813 21.269531 9.453125 12.929688 14.65625 29.976563 14.65625 48.011719 0 18.03125-5.203125 35.078125-14.65625 48.007812-9.886719 13.519532-23.832032 21.273438-38.257813 21.273438-4.628906 0-8.390625-3.765625-8.390625-8.390625 0-4.628906 3.761719-8.394531 8.390625-8.394531 19.921875 0 36.132813-23.550782 36.132813-52.496094 0-28.949219-16.210938-52.5-36.132813-52.5-18.171875 0-33.253906 19.589844-35.765625 45h-16.847656c1.234375-15.222656 6.226562-29.390625 14.355469-40.507812zm58.871093 40.507812h-41.28125c2.207032-17.59375 11.894532-30 20.667969-30 10.402344 0 18.535157 14.640625 20.613281 30zm.054688 15c-2.207031 17.589844-11.894531 29.996094-20.667969 29.996094-12.898437 0-23.390625 10.496094-23.390625 23.394531 0 12.894531 10.492188 23.390625 23.390625 23.390625 19.265625 0 37.625-9.996094 50.367188-27.417969 9.972656-13.640625 15.992187-30.945312 17.28125-49.363281h107.929687c-2.207031 17.589844-11.890625 30-20.664062 30-12.898438 0-23.390625 10.492188-23.390625 23.390625s10.492187 23.390625 23.390625 23.390625c19.265625 0 37.621094-9.996094 50.363281-27.417969 9.972656-13.640625 15.992187-30.945312 17.285156-49.363281h17.039063c30 0 54.410156 24.40625 54.410156 54.40625v24.789062h-418.722656v-24.789062c0-30 24.40625-54.40625 54.410156-54.40625zm-152.824219 0h18.835938c-16.058594 12.722656-26.390625 32.375-26.390625 54.40625v24.789062h-48.277344v-23.363281c0-30.789062 25.046875-55.832031 55.832031-55.832031zm371.761719 331.035156h-309.90625c-30.003906 0-54.410156-24.410156-54.410156-54.410156v-18.28125c0-4.144531-3.355469-7.5-7.5-7.5-4.140625 0-7.5 3.355469-7.5 7.5v18.28125c0 22.03125 10.332031 41.683594 26.390625 54.410156h-18.835938c-30.785156 0-55.832031-25.046875-55.832031-55.832031v-181.007813h48.277344v132.578126c0 4.140624 3.359375 7.5 7.5 7.5 4.144531 0 7.5-3.359376 7.5-7.5v-132.578126h418.722656v182.429688c0 30-24.40625 54.410156-54.40625 54.410156zm0 0"/><path d="m287.640625 207.984375c-53.164063 0-96.410156 43.25-96.410156 96.410156 0 53.160157 43.246093 96.410157 96.410156 96.410157 53.160156 0 96.410156-43.25 96.410156-96.410157 0-53.160156-43.25-96.410156-96.410156-96.410156zm67.632813 51.152344c8.472656 12.621093 13.492187 27.734375 13.742187 43.984375l-11.058594-12.304688c-3.546875-3.925781-5.25-9.191406-4.679687-14.40625zm-43.464844-32.488281-16.609375 7.542968c-4.816407 2.167969-10.34375 2.179688-15.144531.039063l-16.738282-7.53125c7.683594-2.410157 15.851563-3.714844 24.324219-3.714844 8.410156 0 16.53125 1.285156 24.167969 3.664063zm-89.792969 49.574218c.566406 5.3125-1.191406 10.609375-4.789063 14.511719l-10.949218 11.742187c.378906-16.105468 5.425781-31.074218 13.878906-43.574218zm2.746094 79.824219 14.589843 2.957031c5.234376 1.09375 9.738282 4.398438 12.347657 9.035156l6.910156 12.398438c-13.300781-5.097656-24.945313-13.574219-33.847656-24.390625zm53.71875 29.230469-13.691407-24.566406c-4.742187-8.433594-12.894531-14.410157-22.410156-16.398438l-28.628906-5.804688c-2.375-5.121093-4.226562-10.527343-5.5-16.152343l19.972656-21.421875c6.554688-7.101563 9.730469-16.6875 8.707032-26.304688l-3.332032-31.046875c3.585938-3.191406 7.449219-6.078125 11.558594-8.601562l28.769531 12.9375c4.339844 1.9375 14.5625 5.769531 27.453125-.058594l28.585938-12.980469c4.265625 2.605469 8.273437 5.601563 11.980468 8.929688l-3.574218 30.921875c-1.042969 9.511719 2.039062 19.042969 8.445312 26.125l20.03125 22.289062c-1.246094 5.253907-3 10.3125-5.210937 15.125l-28.625 6.011719c-9.601563 2.015625-17.808594 8.097656-22.542969 16.726562l-13.140625 24.199219c-9.6875 1.378907-15.839844.40625-18.847656.070313zm38.59375-5.003906 6.558593-12.078126c2.609376-4.753906 7.148438-8.117187 12.457032-9.230468l14.53125-3.054688c-8.824219 10.773438-20.359375 19.230469-33.546875 24.363282zm0 0"/><path d="m313.398438 324.707031 6.273437-19.296875c2.203125-6.789062-.195313-14.164062-5.96875-18.359375l-16.414063-11.925781c-5.773437-4.195312-13.53125-4.195312-19.304687 0l-16.414063 11.925781c-5.773437 4.195313-8.171874 11.570313-5.964843 18.359375l6.269531 19.296875c2.207031 6.785157 8.480469 11.347657 15.617188 11.347657h20.292968c7.132813 0 13.410156-4.5625 15.613282-11.347657zm-37.257813-4.636719-6.269531-19.296874c-.191406-.585938.015625-1.222657.515625-1.585938l16.417969-11.925781c.25-.183594 1.007812-.464844 1.667968 0l16.417969 11.925781c.496094.363281.703125 1 .515625 1.585938l-6.273438 19.296874c-.191406.589844-.730468.984376-1.351562.984376h-20.289062c-.617188 0-1.160157-.394532-1.351563-.984376zm0 0"/></svg>