<svg height="512pt" viewBox="0 -38 512 512" width="512pt" xmlns="http://www.w3.org/2000/svg"><path d="m0 167.996094v202.339844c0 36.03125 29.210938 65.242187 65.242188 65.242187h337.105468c36.03125 0 65.242188-29.210937 65.242188-65.242187v-202.339844zm0 0" fill="#00b4fd"/><path d="m65.1875 167.996094v203.804687c0 35.222657 28.554688 63.777344 63.777344 63.777344h319.257812c35.222656 0 63.777344-28.554687 63.777344-63.777344v-203.804687zm0 0" fill="#5ad6ff"/><path d="m402.347656 79.097656h-337.105468c-36.03125 0-65.242188 29.210938-65.242188 65.242188v31.796875h467.589844v-31.796875c0-36.03125-29.210938-65.242188-65.242188-65.242188zm0 0" fill="#fd5c6f"/><path d="m448.222656 79.097656h-319.257812c-35.222656 0-63.777344 28.554688-63.777344 63.777344v33.261719h446.8125v-33.261719c0-35.222656-28.554688-63.777344-63.777344-63.777344zm0 0" fill="#ff8a98"/><g fill="#6b7d8e"><path d="m406.625 25.078125c-11.652344-15.9375-28.292969-25.078125-45.648438-25.078125-17.355468 0-33.992187 9.140625-45.648437 25.082031-10.699219 14.628907-16.589844 33.8125-16.589844 54.015625h32.742188c0-25.128906 13.507812-46.355468 29.496093-46.355468 15.992188 0 29.5 21.230468 29.5 46.355468 0 25.128906-13.507812 46.359375-29.5 46.359375-9.039062 0-16.371093 7.328125-16.371093 16.367188 0 9.042969 7.332031 16.371093 16.371093 16.371093 17.355469 0 33.996094-9.140624 45.648438-25.078124 10.699219-14.632813 16.59375-33.816407 16.59375-54.019532s-5.894531-39.386718-16.59375-54.019531zm0 0"/><path d="m247.039062 25.078125c-11.65625-15.9375-28.296874-25.078125-45.652343-25.078125s-33.992188 9.140625-45.648438 25.082031c-10.695312 14.628907-16.589843 33.8125-16.589843 54.015625h32.742187c0-25.128906 13.507813-46.355468 29.496094-46.355468 15.992187 0 29.5 21.230468 29.5 46.355468 0 25.128906-13.507813 46.359375-29.5 46.359375-9.039063 0-16.371094 7.328125-16.371094 16.367188 0 9.042969 7.332031 16.371093 16.371094 16.371093 17.355469 0 33.996093-9.140624 45.652343-25.078124 10.695313-14.632813 16.589844-33.816407 16.589844-54.019532s-5.894531-39.386718-16.589844-54.019531zm0 0"/><path d="m380.1875 305.855469c0 5.847656-.546875 11.566406-1.59375 17.105469l-6.957031 11.242187-1.453125 13.320313c-13.003906 25.414062-37.535156 43.949218-66.691406 48.71875l-14.898438-3.921876-14.285156 4.019532c-29.316406-4.589844-54.023438-23.085938-67.15625-48.527344l-.671875-13.875-8.058594-11.914062c-.933594-5.246094-1.421875-10.652344-1.421875-16.167969 0-25.792969 10.660156-49.09375 27.816406-65.742188l10.957032-3.722656 8.558593-10.742187c13.121094-7.257813 28.207031-11.386719 44.261719-11.386719 15.976562 0 30.996094 4.089843 44.070312 11.277343l7.730469 9.882813 12.269531 4.976563c16.984376 16.628906 27.523438 39.8125 27.523438 65.457031zm0 0"/></g><path d="m355.300781 297.046875c-5.136719-5.683594-7.597656-13.289063-6.761719-20.90625l4.128907-35.734375c-5.941407-5.816406-12.660157-10.824219-20.003907-14.863281l-33.109374 15.039062c-6.972657 3.140625-14.957032 3.15625-21.941407.039063l-33.28125-14.96875c-7.144531 3.949218-13.699219 8.824218-19.515625 14.464844l3.855469 35.898437c.820313 7.6875-1.71875 15.355469-6.964844 21.035156l-23.28125 24.972657c1.625 9.136718 4.605469 17.800781 8.726563 25.785156l33.28125 6.742187c7.574218 1.585938 14.09375 6.363281 17.886718 13.109375l15.988282 28.683594c4.660156.730469 9.425781 1.105469 14.289062 1.105469 5.074219 0 10.046875-.410157 14.898438-1.203125l15.40625-28.378906c3.769531-6.867188 10.351562-11.746094 18.019531-13.351563l33.261719-6.988281c3.90625-7.632813 6.769531-15.878906 8.410156-24.5625zm-41.058593 7.46875-6.457032 19.878906c-1.230468 3.785157-4.757812 6.351563-8.742187 6.351563h-20.902344c-3.980469 0-7.507813-2.5625-8.738281-6.351563l-6.460938-19.878906c-1.230468-3.789063.117188-7.9375 3.339844-10.273437l16.910156-12.289063c3.21875-2.339844 7.582032-2.339844 10.800782 0l16.914062 12.289063c3.21875 2.335937 4.566406 6.484374 3.335938 10.273437zm0 0" fill="#fffcdc"/></svg>